<?xml version="1.0" ?><svg id="ART" viewBox="0 0 150 150" xmlns="http://www.w3.org/2000/svg"><defs><style>.cls-1{fill:#9ea9ac;}.cls-1,.cls-3,.cls-4,.cls-5,.cls-6{stroke:#000;}.cls-1,.cls-3,.cls-4{stroke-miterlimit:10;}.cls-1,.cls-3,.cls-5{stroke-width:4px;}.cls-2{fill:#5e6c70;}.cls-3,.cls-5{fill:#b4bfc2;}.cls-4{fill:#fceebb;stroke-width:2px;}.cls-5,.cls-6{stroke-linecap:round;stroke-linejoin:round;}.cls-6{fill:#fcfcfc;stroke-width:1.89px;}</style></defs><title/><path class="cls-1" d="M44.56,24.15C37.08,15.9,18,7.82,6.81,30.86,1.89,40.94,7.8,52.53,14,63,21.9,76.5,32.05,87,39.19,78.32,51.89,62.85,44.56,24.15,44.56,24.15Z" data-name="&lt;Path&gt;" id="_Path_"/><path class="cls-1" d="M105.44,24.15c7.49-8.25,26.53-16.34,37.76,6.71,4.91,10.08-1,21.67-7.16,32.16-7.93,13.48-18.09,24-25.23,15.31C98.11,62.85,105.44,24.15,105.44,24.15Z" data-name="&lt;Path&gt;" id="_Path_2"/><path class="cls-2" d="M53.4,30.14c-8.78-10.67-40.08-11.87-37,13.58,1.5,12.44,6.09,18.32,13.9,26.1,11.08,11,24.17,11.94,31.31,3.23C74.29,57.58,53.4,30.14,53.4,30.14Z"/><path class="cls-2" d="M96.6,30.14c8.78-10.67,40.08-11.87,37,13.58-1.5,12.44-6.09,18.32-13.9,26.1-11.08,11-24.17,11.94-31.31,3.23C75.71,57.58,96.6,30.14,96.6,30.14Z"/><path class="cls-3" d="M114.24,61.62c-3.62,15.48-.66,24.42-7.36,34.17-5.43,7.91-19.77,17.76-31.88,17.76s-26.44-9.85-31.89-17.76c-6.7-9.76-3.73-18.7-7.36-34.17C28.53,30.72,48.69,9.32,75,9.32S121.48,30.72,114.24,61.62Z"/><path class="cls-4" d="M95.92,96.4c5.14-1.75,8.68,3.83,9.44,9.95s6.32,9.63,4.24,11.66c-2.44,2.37-11.62-3.83-15.6-10.08C91.18,103.5,90.72,98.17,95.92,96.4Z"/><path class="cls-4" d="M54.08,96.4c-5.14-1.75-8.68,3.83-9.44,9.95S38.31,116,40.39,118c2.44,2.37,11.62-3.83,15.6-10.08C58.82,103.5,59.28,98.17,54.08,96.4Z"/><path class="cls-5" d="M57.69,92.72c3.19,9.09,4.26,34.87-4.59,37-4.31,1-8-1.75-8.09-4.25s-2.06-7.22-4.5-3.37c-3-1.08-4.67,2-2.34,4.25C38,130.43,43.35,140.68,54,140.68c23.38,0,38.92-17.19,37-48.17"/><path class="cls-6" d="M102.65,63.52c0,3.51-3.19,7.25-7.12,7.25s-7.12-2-7.12-5.46,3.19-7.25,7.13-7.25S102.65,60,102.65,63.52Z"/><ellipse cx="95.52" cy="64.41" rx="3.45" ry="3.08"/><path class="cls-6" d="M61.6,65.3c0,3.51-3.19,5.46-7.12,5.46S47.35,67,47.35,63.52s3.19-5.46,7.13-5.46S61.6,61.79,61.6,65.3Z"/><ellipse cx="54.48" cy="64.41" rx="3.45" ry="3.08"/><path class="cls-2" d="M94.5,29.15C89.72,26.93,82.75,25.53,75,25.53s-14.71,1.4-19.49,3.62C59,25.5,66.39,23,75,23S91,25.5,94.5,29.15Z"/><path class="cls-2" d="M84.77,41.72A24.15,24.15,0,0,0,75,39.9a24.13,24.13,0,0,0-9.77,1.81C67,39.89,70.68,38.63,75,38.63S83,39.89,84.77,41.72Z"/><path class="cls-2" d="M91.13,36c-4-1.84-9.72-3-16.13-3s-12.17,1.16-16.13,3c2.87-3,9-5.1,16.13-5.1S88.26,33,91.13,36Z"/></svg>