<?xml version="1.0" ?><svg id="ART" viewBox="0 0 150 150" xmlns="http://www.w3.org/2000/svg"><defs><style>.cls-1{fill:#b57210;stroke-width:2px;}.cls-1,.cls-2,.cls-4{stroke:#000;stroke-miterlimit:10;}.cls-2{fill:#e89c05;}.cls-2,.cls-4{stroke-width:4px;}.cls-3{fill:#fff1ce;}.cls-4{fill:#795f54;}.cls-5{fill:#232323;}.cls-6{fill:#c66700;}</style></defs><title/><path class="cls-1" d="M64.92,16.38c.33,4.43.6,11.63-.75,16.52-2.06,7.52-10,.29-10,.29a82.49,82.49,0,0,1,2.46-17.7,6.06,6.06,0,1,1,8.28.89Z"/><path class="cls-1" d="M85.08,16.38c-.33,4.43-.6,11.63.75,16.52,2.06,7.52,10,.29,10,.29a82.49,82.49,0,0,0-2.46-17.7,6.06,6.06,0,1,0-8.28.89Z"/><polyline class="cls-2" data-name="&lt;Path&gt;" id="_Path_" points="58.52 145.5 58.52 109.09 91.67 109.09 91.67 145.5"/><path class="cls-2" d="M98.67,52.17c13.39-24.71,30.46-28,40.94-21.44,9.4,5.92-22.42,40.34-40.94,21.44"/><path class="cls-2" d="M51.33,52.17c-13.39-24.71-30.46-28-40.94-21.44C1,36.65,32.81,71.07,51.33,52.17"/><path class="cls-2" d="M108.07,66.3c-.87,11.7-14.48,40.86-18.89,44.45S75,114.33,75,114.33s-9.77,0-14.18-3.59S42.8,78,41.93,66.3s4.7-19.36,6.43-22.53,0-13.11,4.6-16.06,15.14,3.8,22,3.8,17.44-6.76,22-3.8,2.87,12.89,4.6,16.06S108.94,54.61,108.07,66.3Z" data-name="&lt;Path&gt;" id="_Path_2"/><path class="cls-3" d="M106.08,66.15c-.86,11.44-14.54,40.1-18.16,43a8.78,8.78,0,0,1-1.67,1,27.08,27.08,0,0,1-1-6.52c-1.66-29.11,4-49.38,18-52.78A30.63,30.63,0,0,1,106.08,66.15Z"/><path class="cls-3" d="M64.73,104.22a29.85,29.85,0,0,1-.84,6.07,8.63,8.63,0,0,1-1.81-1.1c-3.62-2.94-17.3-31.6-18.16-43a30.35,30.35,0,0,1,2.61-14.76C60.69,54.65,66.4,75,64.73,104.22Z"/><path class="cls-4" d="M92.44,114.33c0,6.4-11.79,17.11-17.44,17.11s-17.44-10.71-17.44-17.11S59.67,86.66,75,86.66,92.44,107.93,92.44,114.33Z"/><circle cx="99.76" cy="64.45" r="3.45"/><circle cx="50.43" cy="64.45" r="3.45"/><circle class="cls-5" cx="70.15" cy="101.55" r="2.71"/><circle class="cls-5" cx="79.85" cy="101.55" r="2.71"/><path class="cls-6" d="M65.27,138.75a6.75,6.75,0,0,1-4.75,6.45V132.3A6.75,6.75,0,0,1,65.27,138.75Z"/><path class="cls-6" d="M89.67,132.3v12.9a6.75,6.75,0,0,1,0-12.9Z"/></svg>