<?xml version="1.0" ?><svg id="ART" viewBox="0 0 150 150" xmlns="http://www.w3.org/2000/svg"><defs><style>.cls-1,.cls-4{fill:#acb3ba;}.cls-1,.cls-3,.cls-5,.cls-6,.cls-7{stroke:#000;}.cls-1,.cls-3,.cls-5,.cls-7{stroke-miterlimit:10;}.cls-1,.cls-3{stroke-width:4px;}.cls-2{fill:#72767a;}.cls-3{fill:#d1d1d1;}.cls-5{fill:#fff;}.cls-6{fill:none;stroke-linecap:round;stroke-linejoin:round;}.cls-7{fill:#6b6e70;stroke-width:2px;}</style></defs><title/><path class="cls-1" d="M81.06,48.54c-6.11,25.87-4,48.51,4.8,50.57S109.3,66.37,112.78,56s4-48.51-4.8-50.57S87.16,22.67,81.06,48.54Z" data-name="&lt;Path&gt;" id="_Path_"/><path class="cls-1" d="M68.94,48.54c6.11,25.87,4,48.51-4.8,50.57S40.7,66.37,37.22,56,33.27,7.5,42,5.44,62.84,22.67,68.94,48.54Z" data-name="&lt;Path&gt;" id="_Path_2"/><path class="cls-2" d="M110.88,55.38A185.48,185.48,0,0,1,99.77,80.89C98,61.93,102.49,33.78,108.45,8a6.51,6.51,0,0,1,1,1.41C114.48,18.39,113.59,47.3,110.88,55.38Z"/><path class="cls-2" d="M50.23,80.89A185.48,185.48,0,0,1,39.12,55.38c-2.71-8.08-3.6-37,1.41-46a6.51,6.51,0,0,1,1-1.41C47.51,33.78,52,61.93,50.23,80.89Z"/><path class="cls-3" d="M75,144.71c-26.05,0-54-20.33-42.45-47.51C42.93,72.88,48.95,49.68,75,49.68s32.07,23.2,42.45,47.51C129,124.38,101.05,144.71,75,144.71Z" data-name="&lt;Path&gt;" id="_Path_3"/><path class="cls-4" d="M118,112.37a26,26,0,0,1-4.3,11.7c-7.36,11.15-22.91,18.64-38.68,18.64s-31.32-7.49-38.68-18.64a26,26,0,0,1-4.3-11.7c11.89-5.74,26.8-9,43-9S106.09,106.63,118,112.37Z"/><ellipse class="cls-5" cx="95.18" cy="90.64" rx="7.27" ry="7.7"/><ellipse cx="93.18" cy="90.64" rx="4.49" ry="4.75"/><ellipse class="cls-5" cx="54.82" cy="90.64" rx="7.27" ry="7.7"/><ellipse cx="56.82" cy="90.64" rx="4.49" ry="4.75"/><path class="cls-5" d="M75,121.87v5a3,3,0,0,1-3,3h-.39a3,3,0,0,1-3-3V124"/><path class="cls-5" d="M75,120.87v6a3,3,0,0,0,3,3h.39a3,3,0,0,0,3-3V124"/><path class="cls-6" d="M61.07,122.89C64.75,126,75,123,75,120.45"/><path class="cls-6" d="M88.93,122.89C85.25,126,75,123,75,120.45"/><path class="cls-7" d="M83,115c-.05,4.44-6.4,5.43-8.11,5.41s-8-1.15-8-5.6,3.75-13.09,8.2-13S83.06,110.59,83,115Z"/></svg>