<?xml version="1.0" encoding="iso-8859-1"?>
<!-- Generator: Adobe Illustrator 18.0.0, SVG Export Plug-In . SVG Version: 6.00 Build 0)  -->
<!DOCTYPE svg PUBLIC "-//W3C//DTD SVG 1.1//EN" "http://www.w3.org/Graphics/SVG/1.1/DTD/svg11.dtd">
<svg version="1.1" id="Capa_1" xmlns="http://www.w3.org/2000/svg" xmlns:xlink="http://www.w3.org/1999/xlink" x="0px" y="0px"
	 viewBox="0 0 443.386 443.386" style="enable-background:new 0 0 443.386 443.386;" xml:space="preserve">
<g>
	<g>
		<path d="M438.327,328.191c-0.939-0.946-2.216-1.479-3.549-1.479c-36.364,0-62.337-27.428-77.199-81.522
			c-11.417-41.552-11.525-83.792-11.525-84.218v-36.611C346.053,55.788,290.266,0,221.693,0C153.12,0,97.333,55.788,97.333,124.361
			v36.615c0,0.421-0.108,42.662-11.525,84.214c-14.862,54.094-40.835,81.522-77.199,81.522c-1.333,0-2.611,0.532-3.549,1.479
			c-0.939,0.946-1.461,2.228-1.451,3.561c0.008,0.945,0.39,23.315,18.265,38.641c13.955,11.965,34.286,16.09,60.427,12.265
			c47.535-6.957,58.661,2.664,72.713,26.277c19.442,32.674,56.13,34.45,66.68,34.45c11.711,0,47.239-1.778,66.68-34.45
			c14.052-23.613,25.178-33.234,72.713-26.278c26.141,3.825,46.472-0.3,60.427-12.265c17.875-15.326,18.257-37.696,18.265-38.641
			C439.788,330.42,439.266,329.138,438.327,328.191z M414.909,362.882c-11.664,9.937-29.286,13.26-52.375,9.881
			c-50.909-7.45-66.089,3.054-82.755,31.059c-18.276,30.714-58.085,29.578-58.085,29.578s-39.735,1.263-58.087-29.578
			c-16.666-28.004-31.85-38.51-82.755-31.058c-23.089,3.379-40.711,0.055-52.376-9.881c-9.918-8.45-13.226-19.943-14.324-26.362
			c38.057-2.684,66.115-33.267,81.347-88.856c11.739-42.843,11.835-84.926,11.834-86.691v-36.611
			C107.333,61.302,158.634,10,221.693,10s114.36,51.302,114.36,114.361v36.607c-0.001,1.77,0.095,43.853,11.833,86.696
			c15.232,55.589,43.289,86.172,81.346,88.855C428.133,342.945,424.825,354.435,414.909,362.882z"/>
	</g>
	<g>
		<g>
			<path d="M178.855,130.737c-13.015,0-23.604-12.596-23.604-28.078c0-15.482,10.589-28.077,23.604-28.077
				c13.015,0,23.604,12.595,23.604,28.077C202.459,118.141,191.871,130.737,178.855,130.737z M178.855,84.582
				c-7.501,0-13.604,8.109-13.604,18.077c0,9.968,6.103,18.078,13.604,18.078c7.501,0,13.604-8.109,13.604-18.078
				C192.459,92.691,186.357,84.582,178.855,84.582z"/>
		</g>
		<g>
			<path d="M264.53,130.737c-13.016,0-23.605-12.596-23.605-28.078c0-15.482,10.589-28.077,23.605-28.077
				c13.015,0,23.604,12.595,23.604,28.077C288.134,118.141,277.545,130.737,264.53,130.737z M264.53,84.582
				c-7.502,0-13.605,8.109-13.605,18.077c0,9.968,6.103,18.078,13.605,18.078c7.501,0,13.604-8.109,13.604-18.078
				C278.134,92.691,272.032,84.582,264.53,84.582z"/>
		</g>
	</g>
	<g>
		<path d="M221.693,176.944c-22.876,0-43.268-10.614-51.953-27.04c-0.819-1.55-0.767-3.415,0.138-4.917
			c0.905-1.502,2.53-2.42,4.283-2.42h95.063c1.753,0,3.378,0.918,4.283,2.42c0.905,1.501,0.957,3.367,0.138,4.917
			C264.961,166.33,244.569,176.944,221.693,176.944z M183.974,152.567c8.565,8.83,22.636,14.376,37.72,14.376
			c15.084,0,29.154-5.546,37.719-14.376H183.974z"/>
	</g>
</g>
<g>
</g>
<g>
</g>
<g>
</g>
<g>
</g>
<g>
</g>
<g>
</g>
<g>
</g>
<g>
</g>
<g>
</g>
<g>
</g>
<g>
</g>
<g>
</g>
<g>
</g>
<g>
</g>
<g>
</g>
</svg>
