<?xml version="1.0" ?><svg id="ART" viewBox="0 0 150 150" xmlns="http://www.w3.org/2000/svg"><defs><style>.cls-1{fill:#cc5621;stroke-width:4px;}.cls-1,.cls-4,.cls-5{stroke:#000;stroke-miterlimit:10;}.cls-2{fill:#a53620;}.cls-3{fill:#e5c1a1;}.cls-4{fill:#f2cfc9;}.cls-4,.cls-5{stroke-linecap:round;}.cls-5{fill:none;stroke-width:3px;}</style></defs><title/><ellipse class="cls-1" cx="124" cy="49.24" rx="19.83" ry="23.09"/><ellipse class="cls-1" cx="26" cy="49.24" rx="19.83" ry="23.09"/><ellipse class="cls-2" cx="120.33" cy="50.54" rx="13.83" ry="16.83"/><ellipse class="cls-2" cx="29.67" cy="50.54" rx="13.83" ry="16.83"/><path class="cls-1" d="M100.93,93.23c1.82,3.38,10.59,34.7-25.93,34.7S47.24,96.61,49.07,93.23c-8.15-6.34-17.35-17.67-17.35-30.4,0-21.44,15.47-39,37.68-40.76,1.18-.09,4.39,3.47,5.61,3.47s4.42-3.57,5.61-3.47c22.21,1.73,37.68,19.32,37.68,40.76C118.29,75.57,109.08,86.9,100.93,93.23Z" data-name="&lt;Path&gt;" id="_Path_"/><path class="cls-3" d="M99.51,95c1.1,3.14,3.55,13.4-1.09,21.17-3.86,6.47-11.74,9.75-23.42,9.75s-19.56-3.28-23.42-9.75c-4.64-7.77-2.19-18-1.09-21.17a33.19,33.19,0,0,1,6.69-7.58C50.46,83.61,40.56,73.19,40.56,57.2c0-9.6,8.78-17.39,18.39-17.39,8.43,0,13.69,5.07,16,5.07s7.61-5.07,16-5.07c9.6,0,18.39,7.79,18.39,17.39,0,16-9.91,26.42-16.62,30.24A33.16,33.16,0,0,1,99.51,95Z"/><circle class="cls-4" cx="57.13" cy="56.7" r="7.11"/><circle cx="58.13" cy="57.7" r="3.25"/><circle class="cls-4" cx="92.88" cy="56.7" r="7.11"/><circle cx="91.87" cy="57.7" r="3.25"/><circle cx="70.69" cy="83.16" r="2.5"/><circle cx="79.31" cy="83.16" r="2.5"/><path class="cls-5" d="M90,100.23s-6.69,6.06-14.62,6.06h0c-7.94,0-14.62-6.06-14.62-6.06"/></svg>